<svg width="92" height="64" viewBox="0 0 92 64" fill="none" xmlns="http://www.w3.org/2000/svg">
    <path fill-rule="evenodd" clip-rule="evenodd"
        d="M61.8923 7.47709C52.5868 11.0623 47.5682 19.6339 47.5682 31.9398C47.5682 43.5754 51.69 51.274 60.412 55.9296C62.8507 57.2314 64.4163 57.4672 70.6367 57.47C76.9754 57.4728 78.4136 57.2496 81.13 55.8386C86.7132 52.9383 91.077 47.4258 91.7408 42.4331C91.964 40.7534 91.822 40.6842 88.1724 40.6842C84.4648 40.6842 84.3361 40.7513 82.9258 43.4222C80.7977 47.4524 77.1566 50.0848 73.0397 50.571C62.9115 51.7665 55.9461 44.175 55.9461 31.9398C55.9461 20.9428 62.2826 13.0518 71.1131 13.0518C76.1849 13.0518 81.8233 16.8371 83.2665 21.2121C84.0122 23.471 84.1563 23.5451 87.7891 23.5451C89.852 23.5451 91.6842 23.3094 91.8591 23.0205C92.6244 21.7585 89.1497 14.7391 86.3977 11.9864C80.7439 6.33331 69.9945 4.35498 61.8923 7.47709ZM17.6141 8.67962C17.2328 9.73734 14.338 17.6864 11.1817 26.3433C8.02528 35.0003 4.21761 45.4824 2.72126 49.6364L0 57.1901L4.36311 56.9817L8.72623 56.7739L10.9032 50.4779L13.081 44.182H22.7509H32.4208L34.537 50.6528L36.6531 57.1237H41.0351H45.4178L43.4262 51.7022C42.3307 48.72 38.2033 37.3879 34.2543 26.5182L27.0734 6.75585H22.69C18.5431 6.75585 18.2695 6.85938 17.6141 8.67962ZM26.4851 26.5287L29.999 36.8366H22.7383H15.4776L18.9978 26.3014C20.9334 20.5077 22.6194 15.8689 22.7446 15.9941C22.8698 16.1187 24.5529 20.8595 26.4851 26.5287Z"
        fill="#000000" />
</svg>