<svg width="64" height="64" viewBox="0 0 64 64" fill="none" xmlns="http://www.w3.org/2000/svg">
    <path fill-rule="evenodd" clip-rule="evenodd"
        d="M22.8718 7.18487C12.7371 10.6894 7.24534 20.5862 8.08379 33.8333C8.53789 41.0145 9.84231 44.9264 13.3133 49.5156C17.0452 54.45 22.2245 56.9849 29.4287 57.402C35.7709 57.7689 40.3168 56.5685 44.7532 53.3549C47.8084 51.1415 50.8595 46.5098 51.5564 43.0277L52 40.8088H48.2493C44.5495 40.8088 44.4776 40.8485 42.9221 43.7733C38.4125 52.2499 25.6041 52.981 19.887 45.0882C17.0347 41.1506 16.0595 37.0539 16.3511 30.2305C16.6573 23.0632 18.757 18.4963 23.1934 15.3483C25.8148 13.4879 26.7013 13.2556 31.188 13.2556C35.4235 13.2556 36.6442 13.5353 38.7891 14.9995C40.1947 15.9586 42.0544 18.0778 42.9221 19.7079L44.1695 22.6725H48.1621C52.4297 22.6725 52.6752 22.0782 50.3754 17.3279C48.3358 13.114 42.7226 8.27514 38.3776 6.98468C33.7145 5.60005 27.2133 5.68375 22.8718 7.18487Z"
        fill="#000000" />
</svg>