<svg width="64" height="64" viewBox="0 0 64 64" fill="none" xmlns="http://www.w3.org/2000/svg">
    <path fill-rule="evenodd" clip-rule="evenodd"
        d="M11.7582 6.68573C6.98297 8.11493 4 13.0598 4 19.547C4 28.8554 10.1657 34.439 18.1279 32.341C21.7231 31.3937 23.3485 29.9796 25.0154 26.3493C27.5215 20.8917 26.1725 11.9829 22.3461 8.72928C20.8195 7.4304 16.7102 5.91099 14.9781 6.00408C14.3473 6.03773 12.8988 6.3449 11.7582 6.68573ZM28.8684 31.4582C20.2044 45.0892 12.848 56.7032 12.5214 57.2667C12.031 58.1116 12.5895 58.2534 15.6985 58.0729L19.4705 57.8545L35.4329 32.7935C44.2121 19.01 51.4018 7.49127 51.4097 7.19555C51.4168 6.90054 49.8924 6.6621 48.0221 6.6664L44.621 6.67428L28.8684 31.4582ZM16.6637 12.1154C19.6159 13.2481 20.8045 19.6201 18.9091 24.1554C17.7742 26.8727 15.6648 27.8802 13.5174 26.7302C11.3658 25.5796 10.6097 23.6549 10.6097 19.3329C10.6097 13.7214 13.1029 10.7492 16.6637 12.1154ZM46.0767 32.588C40.5625 33.7638 37.5645 38.2468 37.5402 45.3541C37.518 51.7361 39.283 55.1465 43.7718 57.3977C52.0892 61.5686 59.9583 55.7365 59.9998 45.3713C60.0364 36.3157 54.1105 30.8746 46.0767 32.588ZM51.9309 39.4068C54.2372 42.3332 53.3973 50.9792 50.6392 52.6991C48.8556 53.8111 45.7315 52.6733 44.9539 50.6277C44.5737 49.6288 44.263 47.0454 44.263 44.8865C44.263 41.6487 44.578 40.6477 46.0652 39.1605C48.0071 37.2186 50.2819 37.3145 51.9309 39.4068Z"
        fill="#000000" />
</svg>