<svg width="64" height="64" viewBox="0 0 64 64" fill="none" xmlns="http://www.w3.org/2000/svg">
    <path fill-rule="evenodd" clip-rule="evenodd"
        d="M42.6024 9.80625C41.2662 11.9001 33.785 23.6443 25.9767 35.9063L11.7805 58.2L15.5469 58.192L19.3125 58.184L35.2625 33.0896C44.035 19.2878 51.4735 7.54642 51.7925 6.9976C52.2522 6.2059 51.6149 6 48.7018 6C45.0667 6 45.0094 6.03552 42.6024 9.80625ZM10.25 12.525V16.15H6.625H3V19.05V21.95H6.625H10.25V25.575V29.2H13.15H16.05V25.575V21.95H19.675H23.3V19.05V16.15H19.675H16.05V12.525V8.9H13.15H10.25V12.525ZM41.425 45.15V48.05H51.2125H61V45.15V42.25H51.2125H41.425V45.15Z"
        fill="#000000" />
</svg>