<svg width="64" height="64" viewBox="0 0 64 64" fill="none" xmlns="http://www.w3.org/2000/svg">
    <path fill-rule="evenodd" clip-rule="evenodd"
        d="M27.4987 0.287865C23.2839 0.985605 21.6152 1.84791 17.7899 5.30385C11.9622 10.5685 9 19.5364 9 31.911C9 47.3485 13.8254 58.0424 22.7858 62.4619C27.0839 64.582 36.5373 64.4948 40.6761 62.2966C44.5043 60.2637 48.9298 55.3974 50.8048 51.1596C57.0942 36.9412 54.7805 14.7758 46.0606 5.71117C41.9107 1.3974 34.2735 -0.834327 27.4987 0.287865ZM37.3035 7.72471C43.2257 10.7458 46.955 20.0279 46.955 31.748C46.955 48.14 41.1705 57.7736 31.3284 57.7736C24.5409 57.7736 19.5897 52.7085 17.4369 43.5626C16.0526 37.6784 16.1613 25.8183 17.6544 19.873C20.4595 8.70542 28.944 3.46009 37.3035 7.72471Z"
        fill="#FFFFFF" />
</svg>