<svg width="64" height="64" viewBox="0 0 64 64" fill="none" xmlns="http://www.w3.org/2000/svg">
    <path fill-rule="evenodd" clip-rule="evenodd"
        d="M27.2796 0.348888C18.767 1.73082 11 9.56224 11 16.7627C11 18.9457 11.1282 19.0349 14.275 19.0349C17.5072 19.0349 17.5619 18.9922 18.4762 15.727C20.6915 7.81534 30.966 3.80221 38.2758 7.99296C44.7298 11.6936 45.758 19.492 40.7444 26.7149C39.2418 28.8793 31.9343 36.9797 24.506 44.7152C12.2748 57.4523 11 59.0254 11 61.3898V64H31.609H52.218V60.6276V57.2552H37.2296C28.986 57.2552 22.2413 56.969 22.2413 56.619C22.2413 56.2682 26.8997 51.1257 32.5922 45.1903C45.8007 31.419 48.9243 27.4021 50.4164 22.2701C54.2819 8.97395 42.5603 -2.13169 27.2796 0.348888Z"
        fill="#FFFFFF" />
</svg>