<svg width="64" height="64" viewBox="0 0 64 64" fill="none" xmlns="http://www.w3.org/2000/svg">
    <path fill-rule="evenodd" clip-rule="evenodd"
        d="M28.7122 0.31437C21.3059 1.52138 16.7491 4.6162 14.1463 10.2053C11.5331 15.8182 11.7115 16.6098 15.5927 16.6098C18.6511 16.6098 18.8852 16.4559 19.9458 13.7557C21.7258 9.22425 25.5401 6.80874 31.5149 6.42895C37.1895 6.06848 40.543 7.3461 43.1094 10.8467C45.1525 13.6331 45.1562 19.5953 43.1168 22.3267C40.0012 26.4992 38.0041 27.3681 30.8884 27.646L24.2528 27.9062V30.694V33.4819L31.0408 33.9635C39.1249 34.5373 43.2513 36.4058 45.2477 40.3969C46.9868 43.8716 46.9162 49.0742 45.0894 52.0694C39.6533 60.9852 20.035 58.7028 18.2014 48.9404C17.9762 47.7438 17.2352 47.4101 14.3983 47.2273C10.5662 46.9812 10.5342 47.0214 11.6007 50.739C12.6428 54.372 15.8431 58.6887 18.7781 60.4204C31.1344 67.7108 48.8888 63.3554 53.2166 51.9721C54.4771 48.6565 54.1248 42.6437 52.4697 39.2241C50.7082 35.586 46.4249 32.3455 42.5467 31.716C39.0491 31.1481 38.5065 30.2399 41.2974 29.6275C44.5958 28.9028 49.108 25.3019 50.5648 22.2323C52.1731 18.8439 52.2467 12.2886 50.7104 9.3179C47.296 2.71576 37.8064 -1.16764 28.7122 0.31437Z"
        fill="#FFFFFF" />
</svg>