<svg width="64" height="64" viewBox="0 0 64 64" fill="none" xmlns="http://www.w3.org/2000/svg">
    <path fill-rule="evenodd" clip-rule="evenodd"
        d="M14.3542 4.79817e-06C14.3482 0.518832 13.6748 9.18127 12.8573 18.0986C12.0399 27.0159 11.3664 34.5668 11.3604 34.8775C11.3544 35.1882 12.8128 35.4431 14.6016 35.4431C17.2553 35.4431 18.2613 35.0148 20.0689 33.1137C24.2549 28.7104 29.7267 27.1909 35.8456 28.7315C46.287 31.3611 50.1593 45.2744 42.6114 53.0455C39.3944 56.3583 35.749 57.5672 30.1898 57.1652C24.2745 56.7376 20.2664 54.0892 18.489 49.4349C17.1859 46.0233 17.1535 46.0006 13.588 46.0006H10L10.5905 48.6182C12.2623 56.0326 18.3382 61.7434 26.3159 63.3994C41.3807 66.5267 53.8243 57.1215 53.8243 42.6072C53.8243 36.4174 52.083 31.8008 48.3351 28.0528C41.1334 20.8511 28.2826 19.8119 21.3787 25.8735C19.9821 27.0997 18.7288 27.9729 18.5946 27.8138C18.2831 27.4473 20.2687 8.24241 20.7483 6.97551C21.0168 6.26589 24.7443 6.03287 35.8343 6.03287H50.5628V3.01644V0H32.4641C18.4943 0 14.3542 4.79817e-06 14.3542 4.79817e-06Z"
        fill="#FFFFFF" />
</svg>