<svg width="64" height="64" viewBox="0 0 64 64" fill="none" xmlns="http://www.w3.org/2000/svg">
    <path fill-rule="evenodd" clip-rule="evenodd"
        d="M29.775 0.382408C16.1898 2.60361 9.31861 14.7335 10.0533 35.1951C10.4811 47.107 12.0625 51.5271 18.0611 57.5687C23.2271 62.7725 28.1929 64.5504 35.6231 63.8564C56.7038 61.888 62.3361 34.5071 43.6946 24.6147C41.2851 23.3358 39.3619 22.9851 34.6986 22.9748C29.5 22.9636 28.2782 23.2328 24.807 25.1559C21.12 27.1984 18.5541 29.5976 17.7979 31.7105C17.6222 32.1999 17.2396 32.3785 16.9468 32.1072C16.2224 31.437 17.9076 20.6179 19.2369 17.4017C21.1282 12.8288 24.03 9.33913 27.2306 7.78962C33.5702 4.72102 41.486 6.65159 45.1277 12.1534C47.0145 15.0048 47.3356 15.1776 50.7467 15.1776H54.3654L53.22 12.4374C51.4985 8.31601 48.7212 5.03833 45.2382 3.01656C42.4772 1.41294 40.9248 0.975518 34.6986 0.0421093C33.8831 -0.0802198 31.667 0.0732488 29.775 0.382408ZM40.2879 30.7616C46.2694 33.8131 49.1075 41.6044 46.6149 48.1308C41.1739 62.3781 20.1651 59.5623 18.91 44.4187C18.3858 38.1043 20.7879 33.5707 26.1726 30.7089C29.7795 28.7917 36.4757 28.8169 40.2879 30.7616Z"
        fill="#FFFFFF" />
</svg>