<svg width="64" height="64" viewBox="0 0 64 64" fill="none" xmlns="http://www.w3.org/2000/svg">
    <path fill-rule="evenodd" clip-rule="evenodd"
        d="M28.1943 0.303784C23.028 1.03027 20.9518 1.97143 17.3483 5.22279C8.98331 12.7722 10.8136 24.2266 21.1375 28.9316L23.7374 30.1164L21.2392 30.9967C17.6685 32.2543 13.1989 36.244 11.3908 39.7881C9.18461 44.1128 9.65185 50.8971 12.4464 55.12C20.2817 66.96 44.278 66.96 52.1134 55.12C54.9079 50.8971 55.3752 44.1128 53.169 39.7881C51.3483 36.2203 46.8601 32.2291 43.3205 31.0309L40.8224 30.1848L43.7937 28.61C49.9852 25.3274 52.3362 21.9186 52.3362 16.2263C52.3362 11.6542 50.9278 8.57666 47.3638 5.36096C42.5406 1.00873 35.8105 -0.766631 28.1943 0.303784ZM38.4669 7.19797C42.4462 8.86042 44.9087 12.4007 44.905 16.4558C44.8998 23.2713 40.3336 27.1325 32.2799 27.1325C27.9878 27.1325 23.516 25.6127 21.829 23.5796C21.3551 23.0083 20.5491 21.3251 20.0381 19.8379C18.3236 14.8521 20.8344 9.51411 25.9658 7.23363C28.8814 5.93739 35.4057 5.91882 38.4669 7.19797ZM37.9321 34.7658C43.5746 36.4416 47.1364 40.8429 47.1364 46.1385C47.1364 55.1928 34.1176 60.721 24.2863 55.8428C19.2774 53.3573 17.2034 49.9841 17.6061 44.9738C17.8653 41.7462 18.3682 40.5881 20.4444 38.4458C24.6198 34.1389 31.1746 32.7594 37.9321 34.7658Z"
        fill="#FFFFFF" />
</svg>