<svg width="64" height="64" viewBox="0 0 64 64" fill="none" xmlns="http://www.w3.org/2000/svg">
    <path fill-rule="evenodd" clip-rule="evenodd"
        d="M27.5415 0.661794C11.9556 3.30021 4.70104 21.5157 14.3671 33.7444C22.0688 43.4878 37.4919 43.8642 45.5037 34.5045C48.5656 30.927 48.6481 31.1281 47.4114 39.1833C45.9206 48.9024 41.1395 55.9625 35.3087 57.0563C31.2863 57.8105 25.5071 57.0062 23.3106 55.3865C22.2264 54.5873 20.6766 52.8961 19.8664 51.6292C18.5531 49.5756 18.0043 49.3222 14.815 49.2972C11.275 49.2685 11.2418 49.2906 11.7412 51.2941C13.4442 58.1162 22.4857 64 31.2664 64C42.5154 64 50.343 56.951 53.7268 43.7736C55.0298 38.6964 55.2412 24.6469 54.0819 20.1737C51.151 8.87168 44.9859 2.45462 35.3831 0.711145C32.9797 0.275091 30.9909 -0.0431094 30.9637 0.00476806C30.9372 0.051909 29.397 0.348013 27.5415 0.661794ZM35.9068 7.32781C46.7787 10.347 49.6506 25.3128 40.6997 32.3051C37.7873 34.5804 31.6781 35.675 27.8177 34.6135C17.3112 31.7232 13.8965 18.7779 21.6062 11.0681C25.6485 7.02582 30.3715 5.79058 35.9068 7.32781Z"
        fill="#FFFFFF" />
</svg>