<?xml version="1.0" standalone="no"?>
<!DOCTYPE svg PUBLIC "-//W3C//DTD SVG 20010904//EN"
 "http://www.w3.org/TR/2001/REC-SVG-20010904/DTD/svg10.dtd">
<svg version="1.0" xmlns="http://www.w3.org/2000/svg"
 width="1024.000000pt" height="1024.000000pt" viewBox="0 0 1024.000000 1024.000000"
 preserveAspectRatio="xMidYMid meet">
<metadata>
Created by potrace 1.14, written by Peter Selinger 2001-2017
</metadata>
<g transform="translate(0.000000,1024.000000) scale(0.100000,-0.100000)"
fill="#000000" stroke="none">
<path d="M3076 8948 c-156 -17 -291 -78 -398 -177 -124 -114 -196 -265 -217
-453 -8 -67 -11 -1049 -11 -3198 0 -2149 3 -3131 11 -3198 21 -188 93 -339
217 -453 111 -103 241 -159 414 -178 135 -15 3911 -15 4046 0 186 20 313 78
433 198 120 120 178 247 198 433 15 136 15 6260 0 6396 -20 186 -78 313 -198
433 -120 120 -247 178 -433 198 -121 14 -3944 13 -4062 -1z m619 -2899 c150
-56 261 -163 322 -312 38 -92 44 -238 13 -339 -70 -231 -271 -382 -510 -382
-239 0 -440 151 -510 382 -31 101 -25 247 13 339 61 150 175 260 322 311 82
29 97 31 200 27 62 -2 109 -10 150 -26z m1600 0 c150 -56 261 -163 322 -312
38 -92 44 -238 13 -339 -70 -231 -271 -382 -510 -382 -239 0 -440 151 -510
382 -31 101 -25 247 13 339 61 150 175 260 322 311 82 29 97 31 200 27 62 -2
109 -10 150 -26z m1597 -2 c312 -113 448 -459 295 -752 -41 -79 -146 -182
-222 -219 -86 -42 -148 -56 -245 -56 -152 0 -266 47 -370 150 -310 308 -146
819 290 904 56 11 187 -3 252 -27z m-3197 -1598 c150 -56 261 -163 322 -312
38 -92 44 -238 13 -339 -70 -231 -271 -382 -510 -382 -239 0 -440 151 -510
382 -31 101 -25 247 13 339 61 150 175 260 322 311 82 29 97 31 200 27 62 -2
109 -10 150 -26z m1600 0 c150 -56 261 -163 322 -312 38 -92 44 -238 13 -339
-70 -231 -271 -382 -510 -382 -239 0 -440 151 -510 382 -31 101 -25 247 13
339 61 150 175 260 322 311 82 29 97 31 200 27 62 -2 109 -10 150 -26z m1597
-2 c312 -113 448 -459 295 -752 -41 -79 -146 -182 -222 -219 -86 -42 -148 -56
-245 -56 -152 0 -266 47 -370 150 -310 308 -146 819 290 904 56 11 187 -3 252
-27z m-1639 -1590 c146 -43 284 -152 341 -268 101 -209 64 -448 -94 -609 -68
-70 -145 -114 -246 -142 -79 -23 -81 -23 -934 -23 -853 0 -855 0 -934 23 -189
53 -326 186 -380 371 -20 68 -21 198 -1 270 45 170 184 314 355 370 81 26 192
29 995 27 759 -1 846 -3 898 -19z m1639 -10 c312 -113 448 -459 295 -752 -41
-79 -146 -182 -222 -219 -86 -42 -148 -56 -245 -56 -152 0 -266 47 -370 150
-310 308 -146 819 290 904 56 11 187 -3 252 -27z"/>
</g>
</svg>
