<svg width="64" height="64" viewBox="0 0 64 64" fill="none" xmlns="http://www.w3.org/2000/svg">
    <path fill-rule="evenodd" clip-rule="evenodd"
        d="M9.77725 10.072C8.2495 11.6365 7 13.2445 7 13.6465C7 14.0478 11.05 18.4158 16.0007 23.3538L25.0007 32.3305L16.0007 41.3523C11.05 46.315 7 50.7235 7 51.1488C7 51.5748 8.35525 53.2473 10.012 54.865L13.024 57.8065L22.4253 48.4548L31.8265 39.103L40.6008 48.319C45.427 53.3875 49.7575 57.5215 50.2255 57.5065C50.6928 57.4908 52.3225 56.0973 53.8472 54.4105L56.6185 51.3423L47.4453 41.9868L38.272 32.6305L42.319 28.3668C44.5443 26.0215 48.649 21.7293 51.4397 18.8283L56.5135 13.5535L53.1753 10.2768L49.8362 7L40.8475 16.3015L31.8595 25.603L22.606 16.4155C17.5172 11.362 13.1732 7.228 12.9542 7.228C12.7345 7.228 11.305 8.5075 9.77725 10.072Z"
        fill="#F1A33B" />
</svg>